<?xml version="1.0" standalone="no"?>
<!DOCTYPE svg PUBLIC "-//W3C//DTD SVG 20010904//EN"
 "http://www.w3.org/TR/2001/REC-SVG-20010904/DTD/svg10.dtd">
<svg version="1.0" xmlns="http://www.w3.org/2000/svg"
 width="700.000000pt" height="700.000000pt" viewBox="0 0 700.000000 700.000000"
 preserveAspectRatio="xMidYMid meet">
<metadata>
Created by potrace 1.14, written by Peter Selinger 2001-2017
</metadata>
<g transform="translate(0.000000,700.000000) scale(0.100000,-0.100000)"
fill="#000000" stroke="none">
<path d="M1998 6985 c-56 -31 -72 -116 -31 -165 20 -25 228 -127 274 -135 75
-13 140 68 115 145 -13 37 -29 49 -148 107 -124 60 -170 71 -210 48z"/>
<path d="M4703 6940 c-80 -39 -128 -68 -140 -86 -47 -72 5 -170 90 -168 49 1
271 106 293 139 31 48 16 126 -29 155 -48 29 -87 22 -214 -40z"/>
<path d="M2980 6769 c-48 -5 -92 -25 -125 -56 -27 -24 -339 -412 -353 -440
-16 -29 -15 -68 2 -101 22 -40 887 -898 914 -907 64 -19 69 -15 531 448 244
243 449 453 456 467 17 32 9 77 -21 120 -13 19 -95 123 -182 230 -124 154
-166 199 -202 217 -45 23 -48 23 -510 25 -256 2 -485 1 -510 -3z"/>
<path d="M1525 6321 c-78 -33 -91 -144 -23 -193 31 -21 39 -22 282 -22 228 0
254 2 283 19 52 31 67 88 38 145 -28 54 -47 58 -315 59 -135 0 -254 -4 -265
-8z"/>
<path d="M4843 6310 c-38 -23 -53 -49 -55 -93 -1 -39 22 -78 58 -97 35 -19
495 -20 540 -2 58 24 82 105 48 158 -33 50 -53 53 -316 53 -222 0 -247 -1
-275 -19z"/>
<path d="M2105 5694 c-131 -65 -152 -82 -160 -127 -14 -73 57 -147 123 -130
48 11 246 109 265 130 44 50 37 118 -18 161 -44 34 -86 27 -210 -34z"/>
<path d="M4602 5737 c-51 -29 -71 -99 -42 -152 15 -29 231 -140 285 -148 60
-8 117 40 119 101 1 63 -23 87 -156 152 -124 61 -164 70 -206 47z"/>
<path d="M3280 4764 c-306 -39 -583 -172 -810 -390 l-55 -53 -30 28 c-59 56
-184 140 -271 184 -349 174 -761 173 -1093 -4 -124 -67 -192 -118 -297 -223
-179 -180 -293 -385 -349 -629 -26 -113 -29 -198 -29 -827 l0 -605 22 -47 c24
-48 69 -90 119 -109 15 -6 64 -17 108 -25 44 -8 91 -16 105 -19 14 -3 75 -14
135 -25 61 -11 148 -26 195 -35 47 -8 86 -15 88 -15 1 0 2 -18 2 -40 0 -87
-56 -164 -150 -206 -30 -14 -199 -91 -374 -172 -354 -163 -393 -189 -443 -290
l-28 -57 0 -255 c0 -254 0 -255 26 -310 35 -73 91 -130 164 -166 l60 -29 644
-3 c355 -1 646 -4 649 -7 2 -2 6 -42 8 -87 4 -131 43 -211 135 -282 91 -71
-24 -66 1644 -66 1493 0 1505 0 1559 21 73 27 148 96 183 167 23 47 29 74 33
155 l5 97 710 3 c701 2 711 2 755 23 63 30 131 93 158 147 34 69 41 132 40
402 -1 267 -7 312 -53 385 -52 82 -88 101 -464 250 -359 143 -387 154 -429
173 -49 23 -102 80 -133 143 l-33 66 1 190 1 190 69 71 c106 109 171 215 217
350 16 47 21 69 36 161 4 27 8 282 8 568 l1 518 30 37 c70 85 76 110 76 305
l0 178 -32 32 -33 33 -577 0 c-318 0 -599 -2 -624 -6 -148 -23 -277 -160 -281
-299 -1 -23 -6 -30 -22 -31 -29 -1 -49 -5 -91 -19 l-36 -12 -72 69 c-320 307
-747 451 -1177 397z"/>
</g>
</svg>
